<svg xmlns="http://www.w3.org/2000/svg" xmlns:xlink="http://www.w3.org/1999/xlink" viewBox="55 292 690 170" width="690" height="170" preserveAspectRatio="xMidYMid meet" version="1.0"><defs><g/><clipPath id="4d69f1a398"><path d="M 0.0390625 54 L 82 54 L 82 148 L 0.0390625 148 Z M 0.0390625 54 " clip-rule="nonzero"/></clipPath><clipPath id="830ab24788"><path d="M 266 0.121094 L 344 0.121094 L 344 109 L 266 109 Z M 266 0.121094 " clip-rule="nonzero"/></clipPath><clipPath id="80ffe54872"><rect x="0" width="676" y="0" height="216"/></clipPath></defs><g transform="matrix(1, 0, 0, 1, 65, 297)"><g clip-path="url(#80ffe54872)"><g clip-path="url(#4d69f1a398)"><g fill="#86ae81" fill-opacity="1"><g transform="translate(4.481289, 106.700613)"><g><path d="M -0.53125 1.5 C -1.6875 1.5 -2.550781 1.015625 -3.125 0.046875 C -3.695312 -0.921875 -3.984375 -1.976562 -3.984375 -3.125 C -3.984375 -4.34375 -3.660156 -5.414062 -3.015625 -6.34375 C -2.367188 -7.28125 -1.328125 -7.75 0.109375 -7.75 C 2.546875 -7.75 4.785156 -8.84375 6.828125 -11.03125 C 8.878906 -13.21875 10.742188 -16.03125 12.421875 -19.46875 C 14.109375 -22.914062 15.632812 -26.578125 17 -30.453125 C 18.15625 -33.753906 19.410156 -37.195312 20.765625 -40.78125 C 22.128906 -44.375 23.28125 -47.894531 24.21875 -51.34375 C 25.65625 -51.695312 27.34375 -51.835938 29.28125 -51.765625 C 31.21875 -51.691406 32.828125 -51.367188 34.109375 -50.796875 L 34.765625 -43.375 C 38.640625 -49.332031 43.804688 -52.3125 50.265625 -52.3125 C 55.566406 -52.3125 59.757812 -50.460938 62.84375 -46.765625 C 65.9375 -43.066406 67.484375 -37.953125 67.484375 -31.421875 L 67.484375 -18.828125 C 67.484375 -14.671875 68.035156 -11.785156 69.140625 -10.171875 C 70.253906 -8.554688 71.890625 -7.75 74.046875 -7.75 C 75.046875 -7.75 75.816406 -7.316406 76.359375 -6.453125 C 76.898438 -5.597656 77.171875 -4.453125 77.171875 -3.015625 C 77.171875 -1.867188 76.863281 -0.832031 76.25 0.09375 C 75.644531 1.03125 74.660156 1.5 73.296875 1.5 C 68.921875 1.5 65.222656 0.015625 62.203125 -2.953125 C 59.191406 -5.929688 57.6875 -10.832031 57.6875 -17.65625 L 57.6875 -31.421875 C 57.6875 -39.171875 54.851562 -43.046875 49.1875 -43.046875 C 46.675781 -43.046875 44.378906 -42.078125 42.296875 -40.140625 C 40.210938 -38.203125 38.578125 -35.632812 37.390625 -32.4375 C 36.210938 -29.25 35.625 -25.679688 35.625 -21.734375 L 35.625 39.609375 C 34.90625 39.816406 34.113281 39.992188 33.25 40.140625 C 32.394531 40.285156 31.570312 40.359375 30.78125 40.359375 C 29.0625 40.359375 27.410156 40.109375 25.828125 39.609375 L 25.828125 -28.734375 L 25.40625 -27.546875 C 23.394531 -21.804688 21.257812 -16.75 19 -12.375 C 16.738281 -8 14.0625 -4.59375 10.96875 -2.15625 C 7.882812 0.28125 4.050781 1.5 -0.53125 1.5 Z M -0.53125 1.5 "/></g></g></g></g><g fill="#86ae81" fill-opacity="1"><g transform="translate(78.630698, 106.700613)"><g><path d="M -0.859375 1.5 C -1.796875 1.5 -2.550781 1.066406 -3.125 0.203125 C -3.695312 -0.648438 -3.984375 -1.757812 -3.984375 -3.125 C -3.984375 -6.207031 -2.691406 -7.75 -0.109375 -7.75 C 2.191406 -7.75 4.738281 -9.164062 7.53125 -12 C 10.332031 -14.832031 13.597656 -19.40625 17.328125 -25.71875 L 28.84375 -45.203125 C 28.695312 -46.203125 28.625 -47.28125 28.625 -48.4375 C 28.625 -52.019531 29.285156 -54.671875 30.609375 -56.390625 C 31.941406 -58.117188 33.039062 -59.160156 33.90625 -59.515625 C 35.125 -59.804688 36.429688 -59.789062 37.828125 -59.46875 C 39.222656 -59.144531 40.492188 -58.625 41.640625 -57.90625 C 42.796875 -57.1875 43.585938 -56.320312 44.015625 -55.3125 C 43.734375 -54.019531 43.195312 -52.476562 42.40625 -50.6875 C 41.613281 -48.894531 40.359375 -46.492188 38.640625 -43.484375 C 39.140625 -42.691406 39.785156 -41.898438 40.578125 -41.109375 C 41.367188 -40.316406 42.335938 -39.457031 43.484375 -38.53125 L 51.65625 -31.859375 C 54.601562 -29.492188 56.8125 -27.035156 58.28125 -24.484375 C 59.75 -21.929688 60.484375 -19.078125 60.484375 -15.921875 C 60.484375 -12.117188 59.40625 -8.75 57.25 -5.8125 C 57.613281 -5.019531 57.796875 -4.085938 57.796875 -3.015625 C 57.796875 -1.648438 57.453125 -0.554688 56.765625 0.265625 C 56.085938 1.085938 55.140625 1.5 53.921875 1.5 C 52.773438 1.5 51.660156 1.425781 50.578125 1.28125 C 49.503906 1.144531 48.320312 0.96875 47.03125 0.75 C 45.09375 1.25 43.046875 1.5 40.890625 1.5 C 38.378906 1.5 35.867188 1.125 33.359375 0.375 C 30.847656 -0.375 28.226562 -1.578125 25.5 -3.234375 C 25.363281 -7.035156 26.800781 -9.832031 29.8125 -11.625 C 33.757812 -9.039062 37.488281 -7.75 41 -7.75 C 44.019531 -7.75 46.425781 -8.554688 48.21875 -10.171875 C 50.007812 -11.785156 50.90625 -13.847656 50.90625 -16.359375 C 50.90625 -19.515625 49.179688 -22.457031 45.734375 -25.1875 L 37.5625 -31.640625 C 36.125 -32.785156 34.832031 -33.96875 33.6875 -35.1875 L 22.921875 -17 C 18.972656 -10.332031 15.1875 -5.582031 11.5625 -2.75 C 7.945312 0.0820312 3.804688 1.5 -0.859375 1.5 Z M -0.859375 1.5 "/></g></g></g><g fill="#86ae81" fill-opacity="1"><g transform="translate(143.955358, 106.700613)"><g><path d="M -0.109375 -7.75 C 1.398438 -7.75 3.015625 -8.210938 4.734375 -9.140625 C 6.453125 -10.078125 8.066406 -11.515625 9.578125 -13.453125 C 11.660156 -16.328125 13.113281 -19.695312 13.9375 -23.5625 C 14.757812 -27.4375 15.171875 -31.207031 15.171875 -34.875 L 15.171875 -50.796875 C 15.816406 -51.015625 16.570312 -51.191406 17.4375 -51.328125 C 18.300781 -51.472656 19.195312 -51.546875 20.125 -51.546875 C 21.769531 -51.546875 23.382812 -51.296875 24.96875 -50.796875 L 24.96875 -25.9375 C 24.96875 -14.03125 29.304688 -8.078125 37.984375 -8.078125 C 43.085938 -8.078125 46.835938 -10.140625 49.234375 -14.265625 C 51.640625 -18.390625 52.84375 -24.039062 52.84375 -31.21875 L 52.84375 -50.796875 C 54.351562 -51.296875 55.96875 -51.546875 57.6875 -51.546875 C 59.476562 -51.546875 61.128906 -51.296875 62.640625 -50.796875 L 62.640625 29.484375 C 62.640625 38.242188 61.113281 44.738281 58.0625 48.96875 C 55.007812 53.195312 50.113281 55.3125 43.375 55.3125 C 38.351562 55.3125 34.226562 53.570312 31 50.09375 C 27.769531 46.613281 26.15625 42.039062 26.15625 36.375 C 26.15625 23.25 35.125 10.945312 53.0625 -0.53125 L 53.0625 -5.59375 C 48.96875 -0.863281 43.515625 1.5 36.703125 1.5 C 27.585938 1.5 21.304688 -2.335938 17.859375 -10.015625 C 16.710938 -7.929688 15.457031 -6.207031 14.09375 -4.84375 C 12.15625 -2.90625 9.910156 -1.363281 7.359375 -0.21875 C 4.816406 0.925781 2.078125 1.5 -0.859375 1.5 C -1.867188 1.5 -2.640625 1.015625 -3.171875 0.046875 C -3.710938 -0.921875 -3.984375 -1.976562 -3.984375 -3.125 C -3.984375 -4.34375 -3.675781 -5.414062 -3.0625 -6.34375 C -2.457031 -7.28125 -1.472656 -7.75 -0.109375 -7.75 Z M 35.625 35.953125 C 35.625 39.179688 36.335938 41.707031 37.765625 43.53125 C 39.203125 45.363281 41.179688 46.28125 43.703125 46.28125 C 47.066406 46.28125 49.519531 44.863281 51.0625 42.03125 C 52.601562 39.195312 53.375 35.015625 53.375 29.484375 L 53.375 10.4375 C 41.539062 18.757812 35.625 27.265625 35.625 35.953125 Z M 35.625 35.953125 "/></g></g></g><g fill="#86ae81" fill-opacity="1"><g transform="translate(220.364757, 106.700613)"><g><path d="M -0.109375 -7.75 C 2.253906 -7.75 4.566406 -8.878906 6.828125 -11.140625 C 9.085938 -13.398438 11.007812 -16.429688 12.59375 -20.234375 C 12.300781 -22.023438 12.15625 -23.851562 12.15625 -25.71875 C 12.15625 -31.03125 13.234375 -35.675781 15.390625 -39.65625 C 17.546875 -43.644531 20.429688 -46.75 24.046875 -48.96875 C 27.671875 -51.195312 31.640625 -52.3125 35.953125 -52.3125 C 39.535156 -52.3125 42.722656 -51.628906 45.515625 -50.265625 C 48.316406 -48.898438 50.507812 -47.25 52.09375 -45.3125 C 51.875 -44.238281 51.171875 -42.960938 49.984375 -41.484375 C 48.804688 -40.015625 47.679688 -38.957031 46.609375 -38.3125 C 45.378906 -39.601562 43.90625 -40.710938 42.1875 -41.640625 C 40.46875 -42.578125 38.421875 -43.046875 36.046875 -43.046875 C 33.679688 -43.046875 31.441406 -42.414062 29.328125 -41.15625 C 27.210938 -39.90625 25.488281 -38.003906 24.15625 -35.453125 C 22.832031 -32.910156 22.171875 -29.664062 22.171875 -25.71875 C 22.171875 -23.0625 22.671875 -20.332031 23.671875 -17.53125 C 24.679688 -14.738281 26.457031 -12.390625 29 -10.484375 C 31.550781 -8.585938 35.050781 -7.640625 39.5 -7.640625 C 40.570312 -7.640625 41.378906 -7.132812 41.921875 -6.125 C 42.460938 -5.125 42.734375 -4.050781 42.734375 -2.90625 C 42.734375 -1.757812 42.425781 -0.738281 41.8125 0.15625 C 41.195312 1.050781 40.210938 1.5 38.859375 1.5 C 33.617188 1.5 29.1875 0.5 25.5625 -1.5 C 21.9375 -3.507812 19.046875 -6.09375 16.890625 -9.25 C 12.441406 -2.082031 6.523438 1.5 -0.859375 1.5 C -1.796875 1.5 -2.550781 1.066406 -3.125 0.203125 C -3.695312 -0.648438 -3.984375 -1.757812 -3.984375 -3.125 C -3.984375 -6.207031 -2.691406 -7.75 -0.109375 -7.75 Z M -0.109375 -7.75 "/></g></g></g><g clip-path="url(#830ab24788)"><g fill="#86ae81" fill-opacity="1"><g transform="translate(270.730396, 106.700613)"><g><path d="M -0.859375 1.5 C -1.796875 1.5 -2.550781 1.066406 -3.125 0.203125 C -3.695312 -0.648438 -3.984375 -1.757812 -3.984375 -3.125 C -3.984375 -4.5625 -3.640625 -5.691406 -2.953125 -6.515625 C -2.273438 -7.335938 -1.363281 -7.75 -0.21875 -7.75 C 3.007812 -7.75 6.09375 -9.203125 9.03125 -12.109375 C 11.976562 -15.015625 15.28125 -19.945312 18.9375 -26.90625 L 18.9375 -83.84375 C 18.9375 -91.019531 20.441406 -96.539062 23.453125 -100.40625 C 26.472656 -104.28125 30.816406 -106.1875 36.484375 -106.125 C 41.648438 -106.050781 45.6875 -104.039062 48.59375 -100.09375 C 51.5 -96.144531 52.953125 -91.015625 52.953125 -84.703125 C 52.953125 -79.609375 52.050781 -73.9375 50.25 -67.6875 C 48.457031 -61.445312 46.054688 -55.457031 43.046875 -49.71875 C 43.835938 -49.789062 44.628906 -49.828125 45.421875 -49.828125 C 50.796875 -49.828125 55.078125 -47.925781 58.265625 -44.125 C 61.460938 -40.320312 63.0625 -35.226562 63.0625 -28.84375 L 63.0625 -19.59375 C 63.0625 -15.425781 63.582031 -12.410156 64.625 -10.546875 C 65.664062 -8.679688 67.40625 -7.75 69.84375 -7.75 C 71 -7.75 71.828125 -7.300781 72.328125 -6.40625 C 72.828125 -5.507812 73.078125 -4.378906 73.078125 -3.015625 C 73.078125 -1.648438 72.734375 -0.554688 72.046875 0.265625 C 71.367188 1.085938 70.421875 1.5 69.203125 1.5 C 64.035156 1.5 60.070312 -0.164062 57.3125 -3.5 C 54.550781 -6.832031 53.171875 -11.550781 53.171875 -17.65625 L 53.171875 -29.0625 C 53.171875 -32.71875 52.363281 -35.566406 50.75 -37.609375 C 49.132812 -39.660156 46.851562 -40.6875 43.90625 -40.6875 C 41.039062 -40.6875 38.457031 -39.734375 36.15625 -37.828125 C 33.863281 -35.929688 32.035156 -33.332031 30.671875 -30.03125 C 29.304688 -26.726562 28.585938 -22.925781 28.515625 -18.625 L 28.515625 0 C 27.796875 0.21875 27.003906 0.394531 26.140625 0.53125 C 25.285156 0.675781 24.460938 0.75 23.671875 0.75 C 22.097656 0.75 20.519531 0.5 18.9375 0 L 18.9375 -9.25 C 15.925781 -5.3125 12.878906 -2.535156 9.796875 -0.921875 C 6.710938 0.691406 3.160156 1.5 -0.859375 1.5 Z M 28.203125 -83.953125 L 28.203125 -42.40625 C 31.429688 -47.351562 34.207031 -52.335938 36.53125 -57.359375 C 38.863281 -62.378906 40.65625 -67.238281 41.90625 -71.9375 C 43.164062 -76.644531 43.796875 -80.9375 43.796875 -84.8125 C 43.796875 -88.820312 43.132812 -91.882812 41.8125 -94 C 40.488281 -96.125 38.566406 -97.1875 36.046875 -97.1875 C 30.816406 -97.1875 28.203125 -92.773438 28.203125 -83.953125 Z M 28.203125 -83.953125 "/></g></g></g></g><g fill="#86ae81" fill-opacity="1"><g transform="translate(340.79028, 106.700613)"><g><path d="M -0.859375 1.5 C -1.796875 1.5 -2.550781 1.066406 -3.125 0.203125 C -3.695312 -0.648438 -3.984375 -1.757812 -3.984375 -3.125 C -3.984375 -6.207031 -2.691406 -7.75 -0.109375 -7.75 C 1.972656 -7.75 4.085938 -8.085938 6.234375 -8.765625 C 8.390625 -9.453125 10.90625 -10.617188 13.78125 -12.265625 C 10.976562 -17.148438 9.578125 -22.890625 9.578125 -29.484375 C 9.578125 -33.929688 10.398438 -37.859375 12.046875 -41.265625 C 13.703125 -44.679688 16 -47.375 18.9375 -49.34375 C 21.882812 -51.320312 25.222656 -52.3125 28.953125 -52.3125 C 32.109375 -52.3125 34.90625 -51.570312 37.34375 -50.09375 C 39.78125 -48.625 41.679688 -46.597656 43.046875 -44.015625 C 44.410156 -41.429688 45.09375 -38.453125 45.09375 -35.078125 C 45.09375 -30.492188 43.742188 -26.300781 41.046875 -22.5 C 38.359375 -18.695312 33.820312 -14.566406 27.4375 -10.109375 C 29.738281 -8.460938 32.828125 -7.640625 36.703125 -7.640625 C 37.703125 -7.640625 38.488281 -7.207031 39.0625 -6.34375 C 39.632812 -5.488281 39.921875 -4.34375 39.921875 -2.90625 C 39.921875 -1.539062 39.597656 -0.46875 38.953125 0.3125 C 38.304688 1.101562 37.375 1.5 36.15625 1.5 C 32.71875 1.5 29.488281 0.925781 26.46875 -0.21875 C 23.457031 -1.363281 20.945312 -2.941406 18.9375 -4.953125 C 12.050781 -0.648438 5.453125 1.5 -0.859375 1.5 Z M 18.9375 -30.34375 C 18.9375 -24.675781 19.941406 -20.160156 21.953125 -16.796875 C 26.617188 -20.015625 30.082031 -23.164062 32.34375 -26.25 C 34.601562 -29.34375 35.734375 -32.285156 35.734375 -35.078125 C 35.734375 -37.660156 35.101562 -39.6875 33.84375 -41.15625 C 32.59375 -42.632812 30.851562 -43.375 28.625 -43.375 C 25.832031 -43.375 23.519531 -42.117188 21.6875 -39.609375 C 19.851562 -37.097656 18.9375 -34.007812 18.9375 -30.34375 Z M 18.9375 -30.34375 "/></g></g></g><g fill="#2d6d26" fill-opacity="1"><g transform="translate(388.368211, 106.700613)"><g><path d="M 31.3125 1.40625 C 24.351562 1.332031 18.6875 -0.226562 14.3125 -3.28125 C 9.9375 -6.332031 7.03125 -10.40625 5.59375 -15.5 C 6.382812 -16.863281 7.65625 -17.957031 9.40625 -18.78125 C 11.164062 -19.601562 12.835938 -19.941406 14.421875 -19.796875 C 15.710938 -15.921875 17.863281 -12.976562 20.875 -10.96875 C 23.894531 -8.96875 27.554688 -8.003906 31.859375 -8.078125 C 36.453125 -8.140625 40.144531 -9.335938 42.9375 -11.671875 C 45.738281 -14.003906 47.140625 -17.179688 47.140625 -21.203125 C 47.140625 -27.296875 43.945312 -31.242188 37.5625 -33.046875 L 23.25 -37.015625 C 18.226562 -38.453125 14.28125 -40.910156 11.40625 -44.390625 C 8.539062 -47.867188 7.109375 -52.015625 7.109375 -56.828125 C 7.109375 -61.128906 8.203125 -64.96875 10.390625 -68.34375 C 12.578125 -71.71875 15.585938 -74.351562 19.421875 -76.25 C 23.265625 -78.15625 27.660156 -79.109375 32.609375 -79.109375 C 38.128906 -79.109375 43.097656 -77.941406 47.515625 -75.609375 C 51.929688 -73.273438 55.035156 -70.207031 56.828125 -66.40625 C 56.179688 -65.257812 55.117188 -64.128906 53.640625 -63.015625 C 52.171875 -61.898438 50.578125 -61.054688 48.859375 -60.484375 C 45.347656 -66.585938 39.820312 -69.640625 32.28125 -69.640625 C 27.832031 -69.640625 24.207031 -68.507812 21.40625 -66.25 C 18.613281 -63.988281 17.21875 -61.0625 17.21875 -57.46875 C 17.21875 -51.726562 20.914062 -47.816406 28.3125 -45.734375 L 41 -42.296875 C 46.09375 -40.929688 50.070312 -38.398438 52.9375 -34.703125 C 55.8125 -31.015625 57.25 -26.550781 57.25 -21.3125 C 57.25 -16.71875 56.117188 -12.695312 53.859375 -9.25 C 51.597656 -5.8125 48.515625 -3.175781 44.609375 -1.34375 C 40.703125 0.488281 36.269531 1.40625 31.3125 1.40625 Z M 31.3125 1.40625 "/></g></g></g><g fill="#2d6d26" fill-opacity="1"><g transform="translate(450.141399, 106.700613)"><g><path d="M 35.515625 0.75 C 33.867188 0.75 32.179688 0.5 30.453125 0 L 30.453125 -29.703125 L 2.796875 -73.828125 C 3.585938 -75.335938 4.84375 -76.539062 6.5625 -77.4375 C 8.28125 -78.332031 9.859375 -78.78125 11.296875 -78.78125 L 35.515625 -40.140625 L 59.515625 -78.671875 C 61.160156 -78.742188 62.84375 -78.3125 64.5625 -77.375 C 66.289062 -76.445312 67.40625 -75.300781 67.90625 -73.9375 L 40.46875 -29.59375 L 40.46875 0 C 38.957031 0.5 37.304688 0.75 35.515625 0.75 Z M 35.515625 0.75 "/></g></g></g><g fill="#2d6d26" fill-opacity="1"><g transform="translate(520.846998, 106.700613)"><g><path d="M 15.71875 0.75 C 13.914062 0.75 12.265625 0.5 10.765625 0 L 10.765625 -77.703125 C 12.265625 -78.203125 13.953125 -78.453125 15.828125 -78.453125 C 16.472656 -78.453125 17.132812 -78.414062 17.8125 -78.34375 C 18.488281 -78.28125 19.1875 -78.140625 19.90625 -77.921875 L 61.890625 -18.625 L 61.890625 -77.703125 C 63.390625 -78.203125 65.070312 -78.453125 66.9375 -78.453125 C 68.519531 -78.453125 70.171875 -78.203125 71.890625 -77.703125 L 71.890625 0 C 70.671875 0.5 69.304688 0.75 67.796875 0.75 C 66.148438 0.75 64.609375 0.5 63.171875 0 L 20.765625 -59.953125 L 20.765625 0 C 19.046875 0.5 17.363281 0.75 15.71875 0.75 Z M 15.71875 0.75 "/></g></g></g><g fill="#2d6d26" fill-opacity="1"><g transform="translate(603.498292, 106.700613)"><g><path d="M 40.796875 1.5 C 33.765625 1.5 27.628906 -0.203125 22.390625 -3.609375 C 17.148438 -7.015625 13.09375 -11.75 10.21875 -17.8125 C 7.351562 -23.875 5.921875 -30.890625 5.921875 -38.859375 C 5.921875 -46.890625 7.375 -53.9375 10.28125 -60 C 13.1875 -66.0625 17.1875 -70.78125 22.28125 -74.15625 C 27.375 -77.53125 33.222656 -79.21875 39.828125 -79.21875 C 44.847656 -79.21875 49.582031 -78.265625 54.03125 -76.359375 C 58.476562 -74.460938 62.03125 -71.898438 64.6875 -68.671875 C 64.320312 -67.378906 63.472656 -65.992188 62.140625 -64.515625 C 60.816406 -63.046875 59.507812 -62.023438 58.21875 -61.453125 C 56 -64.035156 53.363281 -66.023438 50.3125 -67.421875 C 47.257812 -68.828125 43.941406 -69.53125 40.359375 -69.53125 C 35.484375 -69.53125 31.234375 -68.269531 27.609375 -65.75 C 23.984375 -63.238281 21.179688 -59.707031 19.203125 -55.15625 C 17.234375 -50.601562 16.25 -45.203125 16.25 -38.953125 C 16.25 -32.640625 17.269531 -27.171875 19.3125 -22.546875 C 21.363281 -17.921875 24.234375 -14.367188 27.921875 -11.890625 C 31.617188 -9.410156 35.941406 -8.171875 40.890625 -8.171875 C 48.710938 -8.171875 54.957031 -11.148438 59.625 -17.109375 C 60.769531 -16.609375 62.039062 -15.765625 63.4375 -14.578125 C 64.84375 -13.398438 65.90625 -12.203125 66.625 -10.984375 C 63.96875 -7.035156 60.378906 -3.96875 55.859375 -1.78125 C 51.335938 0.40625 46.316406 1.5 40.796875 1.5 Z M 40.796875 1.5 "/></g></g></g></g></g></svg>