<svg xmlns="http://www.w3.org/2000/svg" xmlns:xlink="http://www.w3.org/1999/xlink" viewBox="100 195 570 420" width="570" height="420" preserveAspectRatio="xMidYMid meet" version="1.0"><defs><g/><clipPath id="afc9933acb"><rect x="0" width="562" y="0" height="785"/></clipPath></defs><g transform="matrix(1, 0, 0, 1, 114, 25)"><g clip-path="url(#afc9933acb)"><g fill="#86ae81" fill-opacity="1"><g transform="translate(21.044997, 410.33896)"><g><path d="M -2.078125 5.828125 C -6.523438 5.828125 -9.859375 3.953125 -12.078125 0.203125 C -14.296875 -3.546875 -15.40625 -7.640625 -15.40625 -12.078125 C -15.40625 -16.796875 -14.15625 -20.960938 -11.65625 -24.578125 C -9.164062 -28.191406 -5.140625 -30 0.421875 -30 C 9.859375 -30 18.535156 -34.234375 26.453125 -42.703125 C 34.367188 -51.171875 41.585938 -62.070312 48.109375 -75.40625 C 54.640625 -88.738281 60.546875 -102.898438 65.828125 -117.890625 C 70.265625 -130.671875 75.117188 -144.003906 80.390625 -157.890625 C 85.671875 -171.773438 90.117188 -185.382812 93.734375 -198.71875 C 99.285156 -200.101562 105.8125 -200.65625 113.3125 -200.375 C 120.8125 -200.101562 127.0625 -198.851562 132.0625 -196.625 L 134.5625 -167.890625 C 149.5625 -190.941406 169.554688 -202.46875 194.546875 -202.46875 C 215.097656 -202.46875 231.34375 -195.316406 243.28125 -181.015625 C 255.226562 -166.710938 261.203125 -146.921875 261.203125 -121.640625 L 261.203125 -72.90625 C 261.203125 -56.789062 263.351562 -45.609375 267.65625 -39.359375 C 271.96875 -33.117188 278.285156 -30 286.609375 -30 C 290.503906 -30 293.492188 -28.332031 295.578125 -25 C 297.660156 -21.664062 298.703125 -17.222656 298.703125 -11.671875 C 298.703125 -7.222656 297.519531 -3.195312 295.15625 0.40625 C 292.789062 4.019531 288.972656 5.828125 283.703125 5.828125 C 266.753906 5.828125 252.445312 0.0664062 240.78125 -11.453125 C 229.125 -22.984375 223.296875 -41.941406 223.296875 -68.328125 L 223.296875 -121.640625 C 223.296875 -151.640625 212.328125 -166.640625 190.390625 -166.640625 C 180.660156 -166.640625 171.769531 -162.890625 163.71875 -155.390625 C 155.664062 -147.890625 149.347656 -137.957031 144.765625 -125.59375 C 140.179688 -113.238281 137.890625 -99.425781 137.890625 -84.15625 L 137.890625 153.3125 C 135.117188 154.144531 132.066406 154.835938 128.734375 155.390625 C 125.398438 155.941406 122.203125 156.21875 119.140625 156.21875 C 112.472656 156.21875 106.085938 155.25 99.984375 153.3125 L 99.984375 -111.234375 L 98.3125 -106.640625 C 90.539062 -84.429688 82.28125 -64.851562 73.53125 -47.90625 C 64.78125 -30.96875 54.429688 -17.773438 42.484375 -8.328125 C 30.546875 1.109375 15.691406 5.828125 -2.078125 5.828125 Z M -2.078125 5.828125 "/></g></g></g><g fill="#2d6d26" fill-opacity="1"><g transform="translate(308.083005, 410.33896)"><g><path d="M -3.328125 5.828125 C -6.941406 5.828125 -9.859375 4.160156 -12.078125 0.828125 C -14.296875 -2.503906 -15.40625 -6.804688 -15.40625 -12.078125 C -15.40625 -24.023438 -10.410156 -30 -0.421875 -30 C 8.472656 -30 18.332031 -35.484375 29.15625 -46.453125 C 39.988281 -57.421875 52.628906 -75.125 67.078125 -99.5625 L 111.640625 -174.96875 C 111.085938 -178.851562 110.8125 -183.019531 110.8125 -187.46875 C 110.8125 -201.351562 113.378906 -211.628906 118.515625 -218.296875 C 123.660156 -224.960938 127.898438 -228.988281 131.234375 -230.375 C 135.953125 -231.488281 141.019531 -231.421875 146.4375 -230.171875 C 151.851562 -228.921875 156.78125 -226.90625 161.21875 -224.125 C 165.664062 -221.351562 168.722656 -218.019531 170.390625 -214.125 C 169.273438 -209.125 167.191406 -203.148438 164.140625 -196.203125 C 161.085938 -189.265625 156.226562 -179.960938 149.5625 -168.296875 C 151.5 -165.242188 153.992188 -162.191406 157.046875 -159.140625 C 160.109375 -156.085938 163.859375 -152.753906 168.296875 -149.140625 L 199.96875 -123.3125 C 211.351562 -114.144531 219.890625 -104.628906 225.578125 -94.765625 C 231.273438 -84.910156 234.125 -73.875 234.125 -61.65625 C 234.125 -46.9375 229.957031 -33.882812 221.625 -22.5 C 223.007812 -19.4375 223.703125 -15.828125 223.703125 -11.671875 C 223.703125 -6.390625 222.382812 -2.15625 219.75 1.03125 C 217.113281 4.226562 213.4375 5.828125 208.71875 5.828125 C 204.269531 5.828125 199.960938 5.550781 195.796875 5 C 191.628906 4.445312 187.046875 3.753906 182.046875 2.921875 C 174.546875 4.859375 166.632812 5.828125 158.3125 5.828125 C 148.582031 5.828125 138.859375 4.367188 129.140625 1.453125 C 119.421875 -1.460938 109.285156 -6.113281 98.734375 -12.5 C 98.179688 -27.21875 103.734375 -38.046875 115.390625 -44.984375 C 130.671875 -34.992188 145.113281 -30 158.71875 -30 C 170.382812 -30 179.6875 -33.117188 186.625 -39.359375 C 193.570312 -45.609375 197.046875 -53.597656 197.046875 -63.328125 C 197.046875 -75.546875 190.378906 -86.929688 177.046875 -97.484375 L 145.390625 -122.484375 C 139.835938 -126.921875 134.835938 -131.5 130.390625 -136.21875 L 88.734375 -65.828125 C 73.460938 -39.992188 58.8125 -21.59375 44.78125 -10.625 C 30.757812 0.34375 14.722656 5.828125 -3.328125 5.828125 Z M -3.328125 5.828125 "/></g></g></g></g></g></svg>